<svg id="visual" viewBox="0 0 900 600" width="900" height="600" xmlns="http://www.w3.org/2000/svg" xmlns:xlink="http://www.w3.org/1999/xlink" version="1.1"><g><g transform="translate(881 332)"><path d="M100.9 -60.2C121.5 -22.6 122.5 24.4 102.4 63.1C82.4 101.9 41.2 132.4 4.3 129.9C-32.5 127.4 -65.1 91.9 -89.5 50.6C-114 9.3 -130.4 -37.7 -114.1 -72.7C-97.8 -107.8 -48.9 -130.9 -4.4 -128.3C40.2 -125.8 80.3 -97.7 100.9 -60.2Z" fill="#45a29e"></path></g><g transform="translate(214 301)"><path d="M79.3 -43.3C96 -16.7 98.4 20.7 82.8 42.7C67.1 64.6 33.6 71.1 2.2 69.8C-29.2 68.6 -58.5 59.6 -71 39.5C-83.5 19.3 -79.2 -12 -64.6 -37.4C-50 -62.7 -25 -82.2 3.1 -84C31.2 -85.8 62.5 -70 79.3 -43.3Z" fill="#45a29e"></path></g><g transform="translate(502 23)"><path d="M71.9 -38.8C89.1 -11.8 96.1 23.9 82.4 48.2C68.7 72.5 34.3 85.4 3.9 83.2C-26.6 80.9 -53.2 63.5 -71.6 36.4C-90.1 9.4 -100.4 -27.3 -87.1 -52.1C-73.8 -76.9 -36.9 -89.9 -4.8 -87.1C27.4 -84.4 54.7 -65.9 71.9 -38.8Z" fill="#45a29e"></path></g></g></svg>